# xmcd CD database file
#
# Track frame offsets:
#	150
#	18812
#	32982
#	46960
#	68210
#	88097
#	109875
#	122975
#	136505
#	150085
#	165382
#	180977
#	197877
#	244512
#	258005
#	272325
#	286080
#	303972
#
# Disc length: 4289 seconds
#
# Revision: 0
# Processed by: cddbd v1.5PL3 Copyright (c) Steve Scherf et al.
# Submitted via: CDex 1.50
#
DISCID=db10bf12
DTITLE=Lester Young - Masters of Jazz CD 2
DYEAR=2000
DGENRE=Jazz
TTITLE0=I got rhythm
TTITLE1=I never knew
TTITLE2=Sometimes I'm happy
TTITLE3=After theater jump
TTITLE4=Lester leaps again
TTITLE5=Destination K.C.
TTITLE6=Three little words
TTITLE7=Salute to Fats
TTITLE8=Basie English
TTITLE9=Blue Lester
TTITLE10=Ghost of a chance
TTITLE11=Kansas city stride
TTITLE12="Jammin' the blues"
TTITLE13=D.B. Blues
TTITLE14=These foolish things
TTITLE15=I can't get started
TTITLE16=I want to be happy
TTITLE17=Back to the land
EXTD=YEAR: 2000
EXTT0=
EXTT1=
EXTT2=
EXTT3=
EXTT4=
EXTT5=
EXTT6=
EXTT7=
EXTT8=
EXTT9=
EXTT10=
EXTT11=
EXTT12=
EXTT13=
EXTT14=
EXTT15=
EXTT16=
EXTT17=
PLAYORDER=
